#!OML:ASF F:\VICON\USERDATA\INSTALL\Justin_Nancy\Justin_Nancy.ASF
:FULLY-SPECIFIED
:DEGREES
16
root 1.25384 17.1318 -28.6033 -0.889145 0.755907 5.50577
lowerback 6.1854 -1.25213 -5.94919
upperback 0.673462 -2.0186 1.88687
thorax -2.49807 -0.941477 5.47397
lowerneck -13.8108 -2.63236 -9.34666
upperneck 20.2903 -2.46112 4.36232
head 8.80043 -1.42416 2.75227
rclavicle 2.59414e-014 -1.74931e-014
rhumerus -41.8149 -26.4841 -66.9054
rradius 20.2507
rwrist 21.343
rhand -17.9622 11.2775
rfingers 7.12502
rthumb 8.30681 -18.5391
lclavicle 2.59414e-014 -1.74931e-014
lhumerus -22.3528 0.997098 86.5624
lradius 37.7087
lwrist -4.70946
lhand -6.64923 51.9979
lfingers 7.12502
lthumb 19.2082 81.0693
rfemur -26.6834 1.92713 14.1115
rtibia 18.5344
rfoot 6.24399 -2.05588
rtoes -3.74771
lfemur 13.2662 -4.38879 -28.9358
ltibia 27.0592
lfoot -10.5881 1.95008
ltoes -23.7435
17
root 1.22838 17.1503 -28.3983 -1.09943 0.390757 4.86348
lowerback 6.15861 -1.09962 -5.19729
upperback 0.80373 -1.75759 2.00635
thorax -2.40257 -0.824358 5.14902
lowerneck -14.0515 -2.66692 -9.19733
upperneck 20.4913 -2.51368 4.31927
head 8.91451 -1.44259 2.70768
rclavicle -2.45002e-014 1.35174e-014
rhumerus -42.3086 -28.3519 -65.4208
rradius 19.3809
rwrist 21.5657
rhand -16.9985 14.5292
rfingers 7.12502
rthumb 9.23681 -15.2485
lclavicle -2.45002e-014 1.35174e-014
lhumerus -22.3453 1.19601 86.6536
lradius 37.2594
lwrist -4.7678
lhand -13.4833 35.1177
lfingers 7.12502
lthumb 12.6273 64.716
rfemur -26.4006 1.73867 15.1618
rtibia 19.3055
rfoot 6.81772 -0.587109
rtoes -0.41372
lfemur 12.9476 -4.2011 -28.2589
ltibia 28.9576
lfoot -9.0834 1.7035
ltoes -24.9002
18
root 1.20969 17.1758 -28.1904 -1.13583 0.0942374 4.231
lowerback 5.85639 -0.982993 -4.44989
upperback 0.949623 -1.5341 2.19394
thorax -2.12533 -0.730047 4.89256
lowerneck -14.5315 -2.57374 -9.18856
upperneck 20.9772 -2.35485 4.35887
head 9.15874 -1.36634 2.74358
rclavicle -1.5207e-014 7.15625e-015
rhumerus -42.1379 -28.6823 -65.3097
rradius 19.3949
rwrist 21.1399
rhand -16.6834 13.3134
rfingers 7.12502
rthumb 9.54081 -16.4506
lclavicle -1.5207e-014 7.15625e-015
lhumerus -22.2294 1.52633 86.8235
lradius 36.7739
lwrist -5.08016
lhand -19.7996 18.6694
lfingers 7.12502
lthumb 6.53329 48.5486
rfemur -26.2635 1.35192 16.2533
rtibia 20.2868
rfoot 6.95533 -0.158465
rtoes 1.66021
lfemur 12.3292 -3.94836 -27.546
ltibia 30.8585
lfoot -7.15654 1.29901
ltoes -22.322
19
root 1.18337 17.2106 -27.9772 -1.23761 0.569055 3.72617
lowerback 5.60481 -1.18274 -3.9146
upperback 1.00773 -1.75421 2.38154
thorax -1.90924 -0.850368 4.79064
lowerneck -14.5427 -2.39438 -9.21254
upperneck 21.2394 -2.11408 4.41079
head 9.23389 -1.25456 2.79913
rclavicle -1.7344e-014 -1.51076e-014
rhumerus -42.1352 -28.7186 -65.1988
rradius 19.4309
rwrist 21.3
rhand -16.7847 12.9669
rfingers 7.12502
rthumb 9.44305 -16.8016
lclavicle -1.7344e-014 -1.51076e-014
lhumerus -22.3994 2.03258 86.944
lradius 36.3694
lwrist -5.35423
lhand -20.3686 19.205
lfingers 7.12502
lthumb 5.984 49.1005
rfemur -25.7746 0.842729 17.0459
rtibia 21.309
rfoot 6.63109 -0.243365
rtoes 1.89624
lfemur 11.7176 -4.18009 -26.8205
ltibia 32.7779
lfoot -4.66455 0.590526
ltoes -38.8727
20
root 1.14343 17.2416 -27.7569 -1.53459 1.4708 3.37805
lowerback 5.57766 -1.59083 -3.79725
upperback 1.00483 -2.28582 2.60567
thorax -1.83309 -1.11876 4.99114
lowerneck -14.1471 -2.46617 -9.16875
upperneck 20.9039 -2.16662 4.00822
head 9.04611 -1.31699 2.64202
rclavicle -3.61291e-014 5.56597e-015
rhumerus -42.4459 -28.9091 -64.6298
rradius 19.1724
rwrist 22.1109
rhand -16.773 13.4471
rfingers 7.12502
rthumb 9.45435 -16.3209
lclavicle -3.61291e-014 5.56597e-015
lhumerus -23.0189 2.87646 86.9762
lradius 36.0911
lwrist -5.38399
lhand -18.9227 21.88
lfingers 7.12502
lthumb 7.37981 51.7313
rfemur -24.9689 0.507118 17.5305
rtibia 22.3668
rfoot 5.64621 -0.360695
rtoes 3.60288
lfemur 11.1827 -4.49765 -26.0409
ltibia 34.8349
lfoot -1.72029 0.273021
ltoes -28.6577
21
root 1.10431 17.2689 -27.5452 -1.6848 1.77941 3.01907
lowerback 5.5593 -1.72929 -3.66015
upperback 0.973284 -2.45769 2.80522
thorax -1.83282 -1.20481 5.13271
lowerneck -14.078 -2.50043 -9.19331
upperneck 20.9145 -2.18863 3.88954
head 9.03865 -1.34286 2.60265
rclavicle 1.6201e-014 1.11319e-014
rhumerus -42.6746 -29.1736 -64.1878
rradius 19.0579
rwrist 22.7237
rhand -16.7153 13.576
rfingers 7.12502
rthumb 9.51006 -16.1894
lclavicle 1.6201e-014 1.11319e-014
lhumerus -23.6398 3.40002 87.0539
lradius 35.9129
lwrist -5.25941
lhand -16.2307 26.1322
lfingers 7.12502
lthumb 9.97762 55.8758
rfemur -24.4834 0.55501 18.0626
rtibia 23.295
rfoot 4.56531 -0.172497
rtoes 5.14219
lfemur 10.448 -4.35341 -25.2853
ltibia 36.8043
lfoot 1.30944 0.433165
ltoes -23.6339
22
root 1.09817 17.2655 -27.3962 -1.67718 -0.97118 2.79436
lowerback 6.0346 -0.790502 -3.33532
upperback 0.82054 -1.19358 2.91381
thorax -2.4063 -0.55668 4.99459
lowerneck -14.0078 -2.52067 -9.29396
upperneck 20.9147 -2.2002 3.89027
head 9.02845 -1.35684 2.61846
rclavicle -1.28713e-014 1.66979e-014
rhumerus -42.6131 -28.4129 -64.5191
rradius 19.2886
rwrist 22.0056
rhand -16.9399 13.2148
rfingers 7.12502
rthumb 9.29337 -16.5604
lclavicle -1.28713e-014 1.66979e-014
lhumerus -24.255 3.78465 87.2378
lradius 35.7629
lwrist -5.4171
lhand -13.2299 30.6441
lfingers 7.12502
lthumb 12.8716 60.2272
rfemur -24.7832 1.58681 18.8408
rtibia 23.8819
rfoot 4.24208 1.66213
rtoes 4.07389
lfemur 9.17425 -1.94081 -25.1485
ltibia 38.9325
lfoot 4.38948 0.834206
ltoes -20.6927
23
root 1.03525 17.3259 -27.162 -2.27561 1.88608 1.989
lowerback 6.32282 -1.84062 -3.14661
upperback 0.812934 -2.57367 3.42265
thorax -2.40629 -1.24684 5.53516
lowerneck -13.7706 -2.41805 -9.61226
upperneck 20.9906 -2.00879 3.8933
head 9.00221 -1.296 2.69716
rclavicle 1.32192e-014 1.90833e-014
rhumerus -42.4325 -26.941 -65.1344
rradius 19.6719
rwrist 21.2579
rhand -17.3302 11.9874
rfingers 7.12502
rthumb 8.91672 -17.8042
lclavicle 1.32192e-014 1.90833e-014
lhumerus -25.0496 4.64972 87.438
lradius 35.4662
lwrist -5.44765
lhand -12.0111 31.7577
lfingers 7.12502
lthumb 14.0463 61.263
rfemur -22.7347 0.712858 19.5853
rtibia 24.127
rfoot 3.25638 -0.445173
rtoes 1.3448
lfemur 8.68156 -3.87704 -23.5818
ltibia 41.0351
lfoot 8.06926 -0.876363
ltoes -14.6846
24
root 1.00896 17.3609 -26.9717 -2.38012 1.48918 1.64123
lowerback 6.49024 -2.36619 -3.53324
upperback 0.122626 -3.27587 4.24315
thorax -3.06409 -1.55734 6.71096
lowerneck -11.6516 -1.57472 -10.8621
upperneck 20.7751 -0.784106 3.8033
head 8.46086 -0.840328 3.01099
rclavicle -1.40143e-014 -1.27222e-014
rhumerus -42.3959 -22.9628 -65.8132
rradius 20.0118
rwrist 20.2852
rhand -17.8554 11.2441
rfingers 7.12502
rthumb 8.40985 -18.5685
lclavicle -1.40143e-014 -1.27222e-014
lhumerus -27.326 7.35951 87.563
lradius 35.3786
lwrist -5.39515
lhand -13.8973 29.3019
lfingers 7.12502
lthumb 12.2281 58.9245
rfemur -21.9324 1.02911 20.1761
rtibia 24.0786
rfoot 2.76824 -0.26724
rtoes 0.313885
lfemur 7.47269 -3.38991 -23.0293
ltibia 43.35
lfoot 11.6326 -1.60535
ltoes -7.13461
25
root 0.982053 17.3993 -26.7764 -2.53183 1.71008 1.34599
lowerback 6.70297 -3.60793 -4.54964
upperback -0.88924 -4.96919 5.52418
thorax -3.80473 -2.32691 8.86805
lowerneck -8.51635 0.0207479 -12.7107
upperneck 20.3054 1.38634 3.56327
head 7.56805 0.0225128 3.41451
rclavicle -2.9459e-014 1.90833e-014
rhumerus -42.1569 -17.1809 -66.3976
rradius 20.1898
rwrist 18.7013
rhand -17.592 11.3743
rfingers 7.12502
rthumb 8.66411 -18.4279
lclavicle -2.9459e-014 1.90833e-014
lhumerus -30.5219 11.9575 87.2823
lradius 35.5512
lwrist -6.22674
lhand -17.8379 21.4582
lfingers 7.12502
lthumb 8.42682 51.2701
rfemur -20.8547 0.905488 20.647
rtibia 23.7837
rfoot 2.20179 -0.385281
rtoes -0.0286797
lfemur 6.24792 -3.40702 -22.5226
ltibia 45.7126
lfoot 14.7872 -2.55775
ltoes -1.04716
26
root 0.956049 17.4353 -26.5885 -2.55393 2.19217 0.624482
lowerback 6.79749 -4.47087 -4.67652
upperback -1.5529 -6.09818 6.42204
thorax -4.24056 -2.84445 10.0577
lowerneck -6.37786 0.782401 -13.6191
upperneck 19.4927 2.30459 3.14614
head 6.85185 0.384719 3.45196
rclavicle -5.08889e-014 5.24792e-014
rhumerus -41.9391 -13.8689 -66.7276
rradius 20.3862
rwrist 16.9906
rhand -16.2717 10.8242
rfingers 7.12502
rthumb 9.93808 -18.9212
lclavicle -5.08889e-014 5.24792e-014
lhumerus -32.5198 14.7759 86.9546
lradius 35.2747
lwrist -6.98112
lhand -18.0448 17.3955
lfingers 7.12502
lthumb 8.22706 47.2154
rfemur -19.8445 0.860625 21.5267
rtibia 23.2452
rfoot 1.77808 -1.07835
rtoes 0.97819
lfemur 4.70544 -3.75584 -21.5833
ltibia 48.1716
lfoot 17.3873 -3.34497
ltoes 2.87004
27
root 0.933266 17.4444 -26.4497 -2.29773 -1.01541 0.0471103
lowerback 6.13149 -0.714703 -1.13518
upperback 1.07468 -0.931535 3.75433
thorax -2.24881 -0.44817 4.60009
lowerneck -14.2523 -2.73151 -8.92998
upperneck 20.9669 -2.5572 3.88751
head 9.11085 -1.49385 2.5129
rclavicle 4.22417e-015 -1.19271e-014
rhumerus -41.0888 -26.4559 -66.7296
rradius 20.7213
rwrist 18.392
rhand -15.2971 10.6568
rfingers 7.12502
rthumb 10.8782 -19.0415
lclavicle 4.22417e-015 -1.19271e-014
lhumerus -25.553 4.83287 87.7727
lradius 33.3171
lwrist -6.47379
lhand -13.0758 28.4793
lfingers 7.12502
lthumb 13.0201 58.053
rfemur -19.6872 2.91973 22.6126
rtibia 22.6489
rfoot 1.86371 -0.0877683
rtoes 2.45182
lfemur 2.93374 -0.935989 -20.9197
ltibia 50.6612
lfoot 19.6091 -3.16399
ltoes 6.75135
28
root 0.894255 17.5014 -26.2369 -2.92721 1.96241 -0.731041
lowerback 6.54037 -1.6339 -0.597604
upperback 1.1434 -2.10925 4.04731
thorax -2.31032 -1.03951 4.70528
lowerneck -14.3861 -2.85308 -8.90394
upperneck 20.9767 -2.71551 3.86912
head 9.1498 -1.56648 2.4819
rclavicle 2.0276e-014 -1.27222e-014
rhumerus -40.6712 -25.9313 -67.1309
rradius 21.2008
rwrist 18.0053
rhand -14.8855 12.1002
rfingers 7.12502
rthumb 11.2751 -17.5768
lclavicle 2.0276e-014 -1.27222e-014
lhumerus -25.7748 4.70035 88.1288
lradius 32.7065
lwrist -6.61999
lhand -12.005 32.2024
lfingers 7.12502
lthumb 14.0521 61.7073
rfemur -17.4379 1.87665 23.3308
rtibia 21.9335
rfoot 1.27569 -2.21807
rtoes 3.1763
lfemur 1.90681 -3.35285 -19.7555
ltibia 52.9696
lfoot 21.5968 -3.59179
ltoes 8.27779
